<?xml version="1.0" encoding="utf-8"?>
<svg viewBox="158 154 183 183" preserveAspectRatio="none" xmlns="http://www.w3.org/2000/svg">
  <path class="st1" d="M 227.29 288.116 L 229.19 286.216 L 203.99 261.216 C 203.99 261.216 205.49 259.816 206.49 258.516 C 207.49 257.116 208.39 256.016 208.39 256.016 L 208.29 253.816 L 203.89 249.516 L 202.19 249.516 C 202.19 249.516 199.69 250.916 195.99 254.516 C 192.29 258.116 190.29 261.216 190.29 261.216 L 190.29 263.316 L 194.59 267.616 L 197.09 267.316 C 197.09 267.316 198.49 266.316 199.39 265.516 C 200.39 264.716 202.19 263.116 202.19 263.116 L 227.29 288.116 Z" transform="matrix(0.707107, -0.707107, 0.707107, 0.707107, -128.6502, 227.042935)"/>
  <g transform="matrix(0.707107, 0.707107, -0.707107, 0.707107, -197.776764, -335.69339)">
    <circle class="st1" cx="778.1" cy="77" r="0.9"/>
    <path class="st1" d="M790.8,75.7l-2.2-5.5l1.4-1.5c0,0,0-0.7-0.1-1c-0.1-0.4-0.4-0.9-0.4-0.9h-0.6l-3,2.8V70c0,0,2.2,5.9,2.3,6.2&#10;&#9;&#9;c0,0.3-0.1,0.3-0.4,0.4c-0.2,0.1-1.5,0.5-1.5,0.5l-5.5-3.1v0.5l-0.5,0.8c0,0,0.2,0.3,0.5,1s0.2,1,0.2,1l0.7-0.6h0.4l3.4,2l0.6,0.1&#10;&#9;&#9;l0.6-0.1l3.9-1.6c0,0,0.2-0.3,0.2-0.7C790.8,76,790.8,75.7,790.8,75.7z"/>
    <path class="st1" d="M780.2,75.3l0.5-0.9v-0.7l-2.4-5.1l0.6-1.7l6,2.2h0.5l3.1-2.7v-0.5c0,0-0.9-0.6-1.3-0.7c-0.3-0.1-0.5,0-0.5,0&#10;&#9;&#9;l-1.5,1.3l-6-2.1c0,0-0.1-0.1-0.6,0c-0.4,0.1-0.8,0.4-0.8,0.4l-1.5,3.7v0.4l2,3.8l0.1,0.6l-0.2,0.4l-0.3,0.6c0,0-1.2,0.3-1.8,0.8&#10;&#9;&#9;s-1,1.2-1,1.2l-23,22.6v0.5l0.6,0.9l22.5-21.8c0,0,0,0.1,0.4,0.6s0.6,0.6,0.6,0.6L754.7,102l0.8,0.7h0.8l24.4-24.4&#10;&#9;&#9;c0,0,0.5-0.8,0.1-1.8C780.5,75.5,780.2,75.3,780.2,75.3z M778.1,78c-0.5,0-1-0.4-1-0.9s0.4-1,0.9-1s1,0.4,1,0.9&#10;&#9;&#9;S778.6,77.9,778.1,78z"/>
  </g>
  <g transform="matrix(1, 0, 0, 1, -520.857361, 121.142792)">
    <path class="st2" d="M703.3,173.3c0,0.5-0.1,0.9-0.3,1.3c-0.2,0.3-0.5,0.6-0.8,0.8s-0.6,0.3-0.9,0.4c-0.2,0.1-0.4,0.1-0.6,0.2&#10;&#9;&#9;c0.1,0,0.4,0,0.7,0.1c0.3,0,0.6,0.1,0.9,0.3c0.3,0.2,0.6,0.5,0.8,0.8c0.3,0.5,0.4,1,0.3,1.6v7.3c0,0.8-0.3,1.7-0.9,2.3&#10;&#9;&#9;c-0.6,0.6-1.4,0.9-2.3,0.9h-7.8c0,0-0.1,0-0.1-0.1l0,0v-23.4c0,0,0-0.1,0.1-0.1l0,0h7.7c0.4,0,0.8,0.1,1.2,0.3s0.7,0.4,1,0.7&#10;&#9;&#9;s0.5,0.6,0.7,1s0.3,0.8,0.3,1.3L703.3,173.3z M696,174.6c0,0.1,0,0.1,0.1,0.1h1.6c0.2,0,0.4,0,0.6-0.1c0.2,0,0.4-0.2,0.6-0.3&#10;&#9;&#9;c0.2-0.2,0.4-0.5,0.5-0.8c0.2-0.5,0.2-1,0.2-1.5v-3.2c0-0.1,0-0.1-0.1-0.1h-3.4c0,0-0.1,0-0.1,0.1l0,0L696,174.6L696,174.6z&#10;&#9;&#9; M699.7,180.2c0-0.5-0.1-0.9-0.2-1.4c-0.1-0.4-0.3-0.7-0.6-1s-0.7-0.5-1.1-0.4H696c0,0-0.1,0-0.1,0.1v8.6c0,0,0,0.1,0.1,0.1l0,0&#10;&#9;&#9;h3.5c0,0,0.1,0,0.1-0.1l0,0L699.7,180.2L699.7,180.2z"/>
    <path class="st2" d="M726.9,165.8c0.4,0,0.8,0.1,1.2,0.3s0.7,0.4,1,0.7c0.6,0.6,0.9,1.4,0.9,2.2v20.4c0,0.1,0,0.1-0.1,0.1h-3.5&#10;&#9;&#9;c0,0-0.1,0-0.1-0.1l0,0v-9.5h-3.7v9.5c0,0.1,0,0.1-0.1,0.1H719c0,0-0.1,0-0.1-0.1l0,0V169c0-0.4,0.1-0.8,0.2-1.2&#10;&#9;&#9;c0.2-0.4,0.4-0.7,0.7-1s0.6-0.5,1-0.7s0.8-0.3,1.2-0.3H726.9z M726.3,176.8v-7.9c0,0,0-0.1-0.1-0.1l0,0l0,0h-3.5l0,0&#10;&#9;&#9;c0,0-0.1,0-0.1,0.1l0,0v7.9H726.3z"/>
    <path class="st2" d="M741.6,165.7c0.8,0,1.6,0.3,2.2,0.9c0.6,0.6,0.9,1.4,0.9,2.2v4.7c0,0.1,0,0.1-0.1,0.1h-3.3c0,0-0.1,0-0.1-0.1&#10;&#9;&#9;l0,0v-4.7c0-0.1,0-0.1-0.1-0.1H738c-0.1,0-0.1,0-0.1,0.1v17.3c0,0,0,0.1,0.1,0.1l0,0h3.1c0,0,0.1,0,0.1-0.1l0,0V180&#10;&#9;&#9;c0-0.1,0-0.1,0.1-0.1l0,0h3.3c0.1,0,0.1,0,0.1,0.1v6.1c0,0.8-0.3,1.6-0.9,2.2c-0.6,0.6-1.4,0.9-2.2,0.9h-4.3&#10;&#9;&#9;c-0.4,0-0.9-0.1-1.3-0.3c-0.7-0.3-1.3-0.9-1.7-1.7c-0.2-0.4-0.3-0.8-0.3-1.2v-17.3c0-0.4,0.1-0.8,0.3-1.2s0.4-0.7,0.7-1&#10;&#9;&#9;s0.6-0.5,1-0.7s0.8-0.3,1.2-0.3L741.6,165.7L741.6,165.7z"/>
    <path class="st2" d="M790.5,177.6c0.2,0.1,0.4,0.4,0.4,0.7v7.9c0,0.4-0.1,0.8-0.3,1.2s-0.4,0.7-0.7,1s-0.6,0.5-1,0.7&#10;&#9;&#9;s-0.8,0.3-1.2,0.3h-4.5c-0.8,0-1.7-0.3-2.3-0.9c-0.3-0.3-0.5-0.6-0.7-1s-0.3-0.8-0.3-1.2v-4.9h3.5v4.9c0,0,0,0.1,0.1,0.1l0,0h3.5&#10;&#9;&#9;c0,0,0.1,0,0.1-0.1l0,0V180v-0.1l-0.1-0.1l-0.8-0.4l-1.2-0.7l-1.4-0.8l-1.3-0.8l-1-0.6c-0.2-0.1-0.3-0.2-0.5-0.3s-0.3-0.3-0.4-0.5&#10;&#9;&#9;c-0.1-0.2-0.1-0.4-0.1-0.6V169c0-0.4,0.1-0.8,0.3-1.2c0.3-0.7,0.9-1.3,1.7-1.7c0.4-0.2,0.8-0.3,1.2-0.3h4c0.4,0,0.8,0.1,1.2,0.3&#10;&#9;&#9;s0.7,0.4,1,0.7s0.5,0.6,0.7,1s0.3,0.8,0.3,1.2v3.3h-3.5v-3.2c0-0.1,0-0.1-0.1-0.1h-2.9c0,0-0.1,0-0.1,0.1l0,0v4.4&#10;&#9;&#9;c0,0.1,0,0.2,0.1,0.3c0,0.1,0.1,0.2,0.2,0.2l0.1,0.1c1.1,0.7,2.1,1.3,3,1.8c0.4,0.2,0.8,0.5,1.1,0.7l1,0.6l0.7,0.4L790.5,177.6z"/>
    <path class="st2" d="M812.2,189.2c0,0.1,0,0.1-0.1,0.1h-3.4c-0.1,0-0.1,0-0.1-0.1V170c0-0.3-0.1-0.6-0.3-0.8&#10;&#9;&#9;c-0.2-0.3-0.5-0.4-0.9-0.4h-0.7c-0.4,0-0.7,0.1-1.1,0.3c-0.3,0.2-0.5,0.6-0.5,1v19.3c0,0.1,0,0.1-0.1,0.1h-2.9&#10;&#9;&#9;c-0.1,0-0.1,0-0.1-0.1V170c0.1-0.4-0.1-0.8-0.5-1c-0.3-0.2-0.7-0.3-1.1-0.3h-0.7c-0.3,0-0.7,0.1-0.9,0.4c-0.2,0.2-0.3,0.5-0.3,0.8&#10;&#9;&#9;v19.2c0,0.1,0,0.1-0.1,0.1h-3.3c-0.1,0-0.1,0-0.1-0.1V169c0-0.8,0.3-1.6,0.9-2.3c0.6-0.6,1.4-1,2.2-0.9h2.9c0.4,0,0.8,0.1,1.2,0.3&#10;&#9;&#9;c0.6,0.3,1,0.9,1.2,1.5c0.1,0.3,0.1,0.5,0.2,0.7c0-0.2,0.1-0.4,0.2-0.7c0.1-0.3,0.2-0.6,0.4-0.8c0.2-0.3,0.5-0.5,0.8-0.7&#10;&#9;&#9;c0.4-0.2,0.8-0.3,1.2-0.3h2.9c0.8,0,1.6,0.3,2.2,0.9c0.6,0.6,0.9,1.4,0.9,2.3L812.2,189.2z"/>
    <path class="st2" d="M824.3,165.8c0.1,0,0.1,0,0.1,0.1v2.8c0,0.1,0,0.1-0.1,0.1l0,0h-2.6v17.5h2.6c0.1,0,0.1,0,0.1,0.1l0,0v2.8&#10;&#9;&#9;c0,0.1,0,0.1-0.1,0.1h-9c-0.1,0-0.1,0-0.1-0.1v-2.8c0-0.1,0-0.1,0.1-0.1h2.7v-17.5h-2.7c-0.1,0-0.1,0-0.1-0.1v-2.8&#10;&#9;&#9;c0-0.1,0-0.1,0.1-0.1H824.3z"/>
    <path class="st2" d="M837.5,165.8c0.1,0,0.1,0,0.1,0.1v2.8c0,0.1,0,0.1-0.1,0.1l0,0h-3.6v20.5c0,0.1,0,0.1-0.1,0.1h-3.5&#10;&#9;&#9;c0,0-0.1,0-0.1-0.1l0,0v-20.5h-3.7c-0.1,0-0.1,0-0.1-0.1v-2.8c0-0.1,0-0.1,0.1-0.1H837.5z"/>
    <path class="st2" d="M851.4,165.8c0.1,0,0.1,0,0.1,0.1v23.2c0,0.1,0,0.1-0.1,0.1l0,0h-3.5c-0.1,0-0.1,0-0.1-0.1v-10.2&#10;&#9;&#9;c0-0.1,0-0.1-0.1-0.1l0,0h-3.6c0,0-0.1,0-0.1,0.1v10.3c0,0.1,0,0.1-0.1,0.1h-3.4c-0.1,0-0.1,0-0.1-0.1V166c0,0,0-0.1,0.1-0.1l0,0&#10;&#9;&#9;h3.5c0,0,0.1,0,0.1,0.1l0,0v9.7c0,0.1,0,0.1,0.1,0.1l0,0h3.6c0.1,0,0.1,0,0.1-0.1l0,0V166c0,0,0-0.1,0.1-0.1l0,0L851.4,165.8z"/>
    <path class="st2" d="M716.3,168.6c0,0.1,0,0.1-0.1,0.1h-5.6v6.1h4.9c0.1,0,0.1,0,0.1,0.1l0,0v2.4c0,0.1,0,0.1-0.1,0.1h-4.9v8.7h5.3&#10;&#9;&#9;c0.1,0,0.1,0,0.1,0.1v2.9c0,0.1,0,0.1-0.1,0.1h-8.8c-0.1,0-0.1,0-0.1-0.1v-23.3c0-0.1,0-0.1,0.1-0.1l0,0h9.1c0.1,0,0.1,0,0.1,0.1&#10;&#9;&#9;V168.6z"/>
    <path class="st2" d="M757,165.8c0.4,0,0.8,0.1,1.2,0.3s0.7,0.4,1,0.7c0.6,0.6,0.9,1.4,1,2.2v17.2c0,0.4-0.1,0.8-0.3,1.2&#10;&#9;&#9;s-0.4,0.7-0.7,1s-0.6,0.5-1,0.7s-0.8,0.3-1.2,0.3h-5.1c-0.4,0-0.9-0.1-1.3-0.3c-0.4-0.2-0.7-0.4-1-0.7s-0.5-0.6-0.7-1&#10;&#9;&#9;s-0.3-0.8-0.3-1.2V169c0-0.4,0.1-0.8,0.3-1.2s0.4-0.7,0.7-1s0.6-0.5,1-0.7s0.8-0.3,1.3-0.3H757z M756.5,168.9c0,0,0-0.1-0.1-0.1&#10;&#9;&#9;l0,0h-3.8c-0.1,0-0.1,0-0.1,0.1v17.3c0,0,0,0.1,0.1,0.1h3.8c0.1,0,0.1-0.1,0.1-0.1V168.9z"/>
    <path class="st2" d="M773.3,165.6c0.4,0,0.9,0.1,1.3,0.3c0.4,0.2,0.7,0.4,1,0.7s0.5,0.6,0.7,1s0.3,0.8,0.3,1.3v20.5&#10;&#9;&#9;c0,0,0,0.1-0.1,0.1l0,0h-3.6c0,0-0.1,0-0.1-0.1l0,0v-20.5c0,0,0-0.1-0.1-0.1l0,0h-4c0,0-0.1,0-0.1,0.1l0,0v20.6c0,0,0,0.1-0.1,0.1&#10;&#9;&#9;l0,0h-3.6c0,0-0.1,0-0.1-0.1l0,0V169c0-0.4,0.1-0.8,0.2-1.2c0.2-0.4,0.4-0.7,0.7-1s0.6-0.5,1-0.7s0.9-0.3,1.3-0.3h5.3V165.6z"/>
  </g>
  <g transform="matrix(1, 0, 0, 1, -521.699951, 138.499985)">
    <path class="st6" d="M 806.082 111.209 L 791.182 111.209 L 791.182 109.409 L 771.582 109.409 L 751.982 109.409 L 751.982 111.409 L 736.982 111.409 L 736.982 112.509 L 751.982 120.509 L 751.982 122.509 L 753.782 122.509 C 758.182 122.509 761.782 126.109 761.782 130.509 C 761.782 132.609 760.982 134.609 759.482 136.109 L 754.782 140.809 L 754.782 145.609 L 764.882 145.609 C 764.882 143.009 767.882 140.809 771.582 140.809 C 775.282 140.809 778.282 142.909 778.282 145.609 L 788.382 145.609 L 788.382 140.809 L 783.682 136.109 C 780.582 133.009 780.582 127.909 783.782 124.809 C 785.282 123.309 787.282 122.509 789.382 122.509 L 791.182 122.509 L 791.182 120.309 L 806.082 112.409 L 806.082 111.209 L 806.082 111.209 Z" style="fill: rgb(255, 0, 0);"/>
  </g>
  <path d="M 177.501 267.751 C 177.501 267.751 167.39 181.302 249.626 172.707" style="stroke: rgb(255, 0, 0); fill: rgb(255, 0, 0);"/>
  <path d="M 249.627 172.707 C 249.627 172.707 239.516 259.156 321.752 267.751" style="stroke: rgb(255, 0, 0); fill: rgb(255, 0, 0);" transform="matrix(-1, 0, 0, -1, 570.98517, 440.458012)"/>
  <g transform="matrix(1, 0, 0, 1, -521.699951, 138.499985)">
    <path class="st2" d="M 771.1 33.634 L 771.1 33.634 C 771.9 33.634 772.6 34.38 772.6 35.232 L 772.6 52.602 C 772.6 53.454 771.9 54.2 771.1 54.2 L 771.1 54.2 C 770.3 54.2 769.6 53.454 769.6 52.602 L 769.6 35.232 C 769.6 34.38 770.3 33.634 771.1 33.634 Z"/>
    <path class="st2" d="M756.8,42.8l-1.3-7.6c-0.1-0.8,0.4-1.6,1.2-1.7l0,0l0,0c0.8-0.1,1.6,0.4,1.7,1.2l0,0l1.3,7.6&#10;&#9;&#9;c0.1,0.8-0.4,1.6-1.2,1.7l0,0l0,0C757.7,44.1,757,43.6,756.8,42.8z"/>
    <path class="st2" d="M758.8,53.9l-0.8-4.3c-0.1-0.8,0.4-1.6,1.2-1.7l0,0l0,0c0.8-0.1,1.6,0.4,1.7,1.2l0,0l0.8,4.3&#10;&#9;&#9;c0.1,0.8-0.4,1.6-1.2,1.7l0,0l0,0C759.7,55.2,758.9,54.7,758.8,53.9L758.8,53.9z"/>
    <path class="st2" d="M748.3,57l-6.5-17.9c-0.3-0.8,0.1-1.6,0.9-1.9l0,0l0,0c0.8-0.3,1.6,0.1,1.9,0.9l0,0l6.5,17.9&#10;&#9;&#9;c0.3,0.8-0.1,1.6-0.9,1.9l0,0l0,0C749.5,58.1,748.6,57.8,748.3,57L748.3,57z"/>
    <path class="st2" d="M738.6,61.8l-8.2-14.2c-0.4-0.7-0.2-1.6,0.5-2l0,0c0.7-0.4,1.6-0.2,2,0.5l8.2,14.2c0.4,0.7,0.2,1.6-0.5,2l0,0&#10;&#9;&#9;C739.9,62.8,739,62.5,738.6,61.8z"/>
    <path class="st2" d="M724.7,62.2l-7.1-8.5c-0.5-0.6-0.4-1.5,0.2-2.1l0,0l0,0c0.6-0.5,1.5-0.4,2.1,0.2l0,0l7.1,8.5&#10;&#9;&#9;c0.5,0.6,0.4,1.5-0.2,2.1l0,0l0,0C726.2,62.9,725.2,62.8,724.7,62.2L724.7,62.2z"/>
    <path class="st2" d="M729.8,68.3l-0.1-0.2c-0.5-0.6-0.4-1.5,0.2-2.1l0,0c0.6-0.5,1.5-0.4,2.1,0.2l0,0l0.1,0.2&#10;&#9;&#9;c0.5,0.6,0.4,1.5-0.2,2.1l0,0C731.3,69,730.3,68.9,729.8,68.3L729.8,68.3z"/>
    <path class="st2" d="M712.3,67.8l-4.6-3.9c-0.6-0.5-0.7-1.4-0.2-2.1l0,0l0,0c0.5-0.6,1.4-0.7,2.1-0.2l0,0l4.6,3.8&#10;&#9;&#9;c0.6,0.5,0.7,1.4,0.2,2.1l0,0l0,0C713.9,68.2,712.9,68.3,712.3,67.8L712.3,67.8z"/>
    <path class="st2" d="M722.3,76.2l-4.6-3.9c-0.6-0.5-0.7-1.4-0.2-2.1l0,0l0,0c0.5-0.6,1.4-0.7,2.1-0.2l0,0l4.6,3.8&#10;&#9;&#9;c0.6,0.5,0.7,1.4,0.2,2.1l0,0l0,0C723.9,76.6,722.9,76.7,722.3,76.2L722.3,76.2z"/>
    <path class="st2" d="M716.3,85.2l-13.9-8c-0.7-0.4-0.9-1.3-0.5-2l0,0c0.4-0.7,1.3-0.9,2-0.5l13.9,8c0.7,0.4,0.9,1.3,0.5,2l0,0&#10;&#9;&#9;C717.9,85.4,717,85.6,716.3,85.2z"/>
    <path class="st2" d="M695.8,89.3l-1.8-0.6c-0.8-0.3-1.2-1.1-0.9-1.9l0,0l0,0c0.3-0.8,1.1-1.2,1.9-0.9l0,0l1.8,0.6&#10;&#9;&#9;c0.8,0.3,1.2,1.1,0.9,1.9l0,0l0,0C697.4,89.2,696.5,89.6,695.8,89.3L695.8,89.3z"/>
    <path class="st2" d="M711.9,95.2l-9.5-3.4c-0.8-0.3-1.2-1.1-0.9-1.9l0,0l0,0c0.3-0.8,1.1-1.2,1.9-0.9l0,0l9.5,3.4&#10;&#9;&#9;c0.8,0.3,1.2,1.1,0.9,1.9l0,0l0,0C713.5,95.1,712.7,95.5,711.9,95.2L711.9,95.2z"/>
    <path class="st2" d="M691.1,102.6l-0.5-0.1c-0.8-0.1-1.3-0.9-1.2-1.7l0,0l0,0c0.1-0.8,0.9-1.3,1.7-1.2l0,0l0.5,0.1&#10;&#9;&#9;c0.8,0.1,1.3,0.9,1.2,1.7l0,0l0,0C692.6,102.2,691.9,102.7,691.1,102.6L691.1,102.6z"/>
    <path class="st2" d="M709.3,105.8l-11.6-2c-0.8-0.1-1.3-0.9-1.2-1.7l0,0l0,0c0.1-0.8,0.9-1.3,1.7-1.2l0,0l11.6,2&#10;&#9;&#9;c0.8,0.1,1.3,0.9,1.2,1.7l0,0l0,0C710.9,105.4,710.1,105.9,709.3,105.8L709.3,105.8z"/>
    <path class="st2" d="M692.2,113.7h3c0.8,0,1.5,0.7,1.5,1.5l0,0c0,0.8-0.7,1.5-1.5,1.5h-3c-0.8,0-1.5-0.7-1.5-1.5l0,0&#10;&#9;&#9;C690.8,114.4,691.4,113.7,692.2,113.7z"/>
    <path class="st2" d="M702,113.7h6.7c0.8,0,1.5,0.7,1.5,1.5l0,0c0,0.8-0.7,1.5-1.5,1.5H702c-0.8,0-1.5-0.7-1.5-1.5l0,0&#10;&#9;&#9;C700.5,114.4,701.1,113.7,702,113.7z"/>
    <path class="st2" d="M833.5,113.7h10.8c0.8,0,1.5,0.7,1.5,1.5l0,0c0,0.8-0.7,1.5-1.5,1.5h-10.8c-0.8,0-1.5-0.7-1.5-1.5l0,0&#10;&#9;&#9;C832.1,114.4,832.7,113.7,833.5,113.7z"/>
    <path class="st2" d="M851.3,113.7h1.3c0.8,0,1.5,0.7,1.5,1.5l0,0c0,0.8-0.7,1.5-1.5,1.5h-1.3c-0.8,0-1.5-0.7-1.5-1.5l0,0&#10;&#9;&#9;C849.8,114.4,850.5,113.7,851.3,113.7z"/>
    <path class="st2" d="M831.1,104.6L831.1,104.6c-0.1-0.8,0.4-1.6,1.2-1.7l0,0l1.5-0.3c0.8-0.1,1.6,0.4,1.7,1.2l0,0l0,0&#10;&#9;&#9;c0.1,0.8-0.4,1.6-1.2,1.7l0,0l-1.5,0.3C832.1,105.9,831.3,105.4,831.1,104.6L831.1,104.6z"/>
    <path class="st2" d="M839.3,103.2L839.3,103.2c-0.1-0.8,0.4-1.6,1.2-1.7l0,0l7.9-1.4c0.8-0.1,1.6,0.4,1.7,1.2l0,0l0,0&#10;&#9;&#9;c0.1,0.8-0.4,1.6-1.2,1.7l0,0l-7.9,1.4C840.2,104.5,839.4,104,839.3,103.2L839.3,103.2z"/>
    <path class="st2" d="M828.4,94.3L828.4,94.3c-0.3-0.8,0.1-1.6,0.9-1.9l0,0l6-2.2c0.8-0.3,1.6,0.1,1.9,0.9l0,0l0,0&#10;&#9;&#9;c0.3,0.8-0.1,1.6-0.9,1.9l0,0l-6,2.2C829.5,95.5,828.7,95.1,828.4,94.3L828.4,94.3z"/>
    <path class="st2" d="M841,89.7L841,89.7c-0.3-0.8,0.1-1.6,0.9-1.9l0,0l5.3-1.9c0.8-0.3,1.6,0.1,1.9,0.9l0,0l0,0&#10;&#9;&#9;c0.3,0.8-0.1,1.6-0.9,1.9l0,0l-5.3,1.9C842.1,90.9,841.2,90.5,841,89.7C841,89.8,841,89.7,841,89.7z"/>
    <path class="st2" d="M823.9,84.7L823.9,84.7c-0.4-0.7-0.2-1.6,0.5-2l16.5-9.5c0.7-0.4,1.6-0.2,2,0.5l0,0c0.4,0.7,0.2,1.6-0.5,2&#10;&#9;&#9;l-16.5,9.5C825.2,85.6,824.3,85.4,823.9,84.7z"/>
    <path class="st2" d="M817.8,76L817.8,76c-0.5-0.6-0.4-1.5,0.2-2.1l0,0l5.6-4.7c0.6-0.5,1.5-0.4,2.1,0.2l0,0l0,0&#10;&#9;&#9;c0.5,0.6,0.4,1.5-0.2,2.1l0,0l-5.6,4.7C819.3,76.7,818.3,76.6,817.8,76L817.8,76z"/>
    <path class="st2" d="M829.1,66.5L829.1,66.5c-0.5-0.6-0.4-1.5,0.2-2.1l3.3-2.8c0.6-0.5,1.5-0.4,2.1,0.2l0,0&#10;&#9;&#9;c0.5,0.6,0.4,1.5-0.2,2.1l0,0l-3.3,2.8C830.5,67.2,829.6,67.2,829.1,66.5z"/>
    <path class="st2" d="M810.3,68.5L810.3,68.5c-0.6-0.5-0.7-1.4-0.2-2.1l0,0l10.2-12.1c0.5-0.6,1.4-0.7,2.1-0.2l0,0l0,0&#10;&#9;&#9;c0.6,0.5,0.7,1.4,0.2,2.1l0,0l-10.2,12.1C811.8,68.9,810.9,69,810.3,68.5L810.3,68.5z"/>
    <path class="st2" d="M801.6,62.4L801.6,62.4c-0.7-0.4-0.9-1.3-0.5-2l9.5-16.5c0.4-0.7,1.3-0.9,2-0.5l0,0c0.7,0.4,0.9,1.3,0.5,2&#10;&#9;&#9;l-9.5,16.5C803.2,62.5,802.3,62.8,801.6,62.4z"/>
    <path class="st2" d="M791.9,57.9L791.9,57.9c-0.8-0.3-1.2-1.1-0.9-1.9l0,0l2.2-6c0.3-0.8,1.1-1.2,1.9-0.9l0,0l0,0&#10;&#9;&#9;c0.8,0.3,1.2,1.1,0.9,1.9l0,0l-2.2,6C793.6,57.8,792.7,58.2,791.9,57.9L791.9,57.9z"/>
    <path class="st2" d="M796.5,45.3L796.5,45.3c-0.8-0.3-1.2-1.1-0.9-1.9l0,0l1.9-5.3c0.3-0.8,1.1-1.2,1.9-0.9l0,0l0,0&#10;&#9;&#9;c0.8,0.3,1.2,1.1,0.9,1.9l0,0l-1.9,5.3C798.1,45.2,797.3,45.6,796.5,45.3L796.5,45.3z"/>
    <path class="st2" d="M781.7,55.1L781.7,55.1c-0.8-0.1-1.3-0.9-1.2-1.7l0,0l1.8-10.3c0.1-0.8,0.9-1.4,1.7-1.2l0,0l0,0&#10;&#9;&#9;c0.8,0.1,1.3,0.9,1.2,1.7l0,0l-1.8,10.3C783.3,54.7,782.5,55.3,781.7,55.1z"/>
    <path class="st2" d="M784.7,38.2L784.7,38.2c-0.8-0.1-1.3-0.9-1.2-1.7l0,0l0.3-1.8c0.1-0.8,0.9-1.3,1.7-1.2l0,0l0,0&#10;&#9;&#9;c0.8,0.2,1.3,0.9,1.2,1.7l-0.3,1.8C786.2,37.8,785.5,38.3,784.7,38.2z"/>
    <rect transform="matrix(0.12661914119014034, 0, 0, 0.12661914119014034, 625.4552680121528, 6.8841400146484295)" style="fill: rgb(216, 216, 216);"/>
    <rect transform="matrix(0.12661914119014034, 0, 0, 0.12661914119014034, 625.4552680121528, 6.8841400146484295)" style="fill: rgb(216, 216, 216);"/>
    <rect transform="matrix(0.12661914119014034, 0, 0, 0.12661914119014034, 625.4552680121528, 6.8841400146484295)" style="fill: rgb(216, 216, 216);"/>
    <rect transform="matrix(0.12661914119014034, 0, 0, 0.12661914119014034, 625.4552680121528, 6.8841400146484295)" style="fill: rgb(216, 216, 216);"/>
    <rect transform="matrix(0.12661914119014034, 0, 0, 0.12661914119014034, 625.4552680121528, 6.8841400146484295)" style="fill: rgb(216, 216, 216);"/>
    <rect transform="matrix(0.12661914119014034, 0, 0, 0.12661914119014034, 625.4552680121528, 6.8841400146484295)" style="fill: rgb(216, 216, 216);"/>
    <rect transform="matrix(1.000241, 0, 0, 0.999985, 625.42015, 6.88456)" style="fill: rgb(216, 216, 216);" x="145.612" y="27.856" width="0.127" height="0.127"/>
    <rect transform="matrix(1.000241, 0, 0, 0.999985, 625.42015, 6.88456)" style="fill: rgb(216, 216, 216);" x="145.612" y="27.856" width="0.127" height="0.127"/>
    <rect transform="matrix(1.000241, 0, 0, 0.999985, 625.42015, 6.88456)" style="fill: rgb(216, 216, 216);" x="145.612" y="27.856" width="0.127" height="0.127"/>
    <rect transform="matrix(1.000241, 0, 0, 0.999985, 625.42015, 6.88456)" style="fill: rgb(216, 216, 216);" x="145.612" y="27.856" width="0.127" height="0.127"/>
    <rect transform="matrix(0.015522183312310112, 0, 0, 0.015522183312310112, 752.43910185496, 29.570770263671886)" style="fill: rgb(216, 216, 216);"/>
    <rect transform="matrix(0.015522183312310112, 0, 0, 0.015522183312310112, 752.43910185496, 29.570770263671886)" style="fill: rgb(216, 216, 216);"/>
    <rect transform="matrix(0.015522183312310112, 0, 0, 0.015522183312310112, 752.43910185496, 29.570770263671886)" style="fill: rgb(216, 216, 216);"/>
    <rect transform="matrix(0.015522183312310112, 0, 0, 0.015522183312310112, 752.43910185496, 29.570770263671886)" style="fill: rgb(216, 216, 216);"/>
    <rect transform="matrix(0.015522183312310112, 0, 0, 0.015522183312310112, 752.43910185496, 29.570770263671886)" style="fill: rgb(216, 216, 216);"/>
    <rect transform="matrix(0.015522183312310112, 0, 0, 0.015522183312310112, 752.43910185496, 29.570770263671886)" style="fill: rgb(216, 216, 216);"/>
    <rect transform="matrix(0.015522183312310112, 0, 0, 0.015522183312310112, 752.43910185496, 29.570770263671886)" style="fill: rgb(216, 216, 216);"/>
  </g>
  <g id="layer1" transform="matrix(0.097005, 0, 0, 0.097005, 214.344345, 173.62645)">
    <g id="g19810" transform="matrix(5.7702402,0,0,5.7702402,96.824553,-2830.9414)">
      <path id="path19261" d="m 30.68594,574.01573 15.342969,-8.85827 15.34297,8.85827 -15.34297,8.85826 -15.342969,-8.85826" style="fill:#b3b3b3;stroke:none"/>
      <path id="path19773" d="m 30.68594,574.01573 0,17.71653 15.342969,8.85827 0,-17.71654 -15.342969,-8.85826" style="fill:#666666;stroke:none"/>
      <path id="path19777" d="m 61.371879,574.01573 0,17.71653 -15.34297,8.85827 0,-17.71654 15.34297,-8.85826" style="fill:#ececec;stroke:none"/>
      <path id="path19781" d="m 76.714849,618.30707 15.34297,-8.85827 0,-53.1496 -15.34297,8.85826 0,53.14961" style="fill:#ececec;stroke:none"/>
      <path id="path19785" d="M 46.03125,529.71875 30.6875,538.59375 0,556.3125 l 15.34375,8.84375 30.6875,-17.71875 30.6875,17.71875 15.34375,-8.84375 -46.03125,-26.59375 z" style="fill:#b3b3b3;stroke:none"/>
      <path id="path19793" d="m 15.34297,565.15746 0,53.1496 L 0,609.4488 l 0,-53.14961 15.34297,8.85827" style="fill:#666666;stroke:none"/>
      <path id="path19801" d="m 30.68594,591.73226 -15.34297,8.85827 0,17.71653 30.685939,-17.71653 -15.342969,-8.85827" style="fill:#b3b3b3;stroke:none"/>
      <path id="path19805" d="m 46.028909,600.59053 30.68594,17.71653 0,-17.71653 -15.34297,-8.85827 -15.34297,8.85827" style="fill:#b3b3b3;stroke:none"/>
    </g>
  </g>
  <rect transform="matrix(NaN, NaN, NaN, NaN, NaN, NaN)" style="fill: rgb(216, 216, 216);"/>
  <rect style="fill: rgb(216, 216, 216);" transform="matrix(0.12661914119014034, 0, 0, 0.12661914119014034, 103.88193427191841, 192.8663024902344)"/>
  <rect style="fill: rgb(216, 216, 216);" transform="matrix(0.12661914119014034, 0, 0, 0.12661914119014034, 103.88193427191841, 192.8663024902344)"/>
  <rect style="fill: rgb(216, 216, 216);" transform="matrix(0.12661914119014034, 0, 0, 0.12661914119014034, 103.88193427191841, 192.8663024902344)"/>
  <rect style="fill: rgb(216, 216, 216);" transform="matrix(0.12661914119014034, 0, 0, 0.12661914119014034, 103.88193427191841, 192.8663024902344)"/>
  <rect style="fill: rgb(216, 216, 216);" transform="matrix(0.12661914119014034, 0, 0, 0.12661914119014034, 103.88193427191841, 192.8663024902344)"/>
  <rect style="fill: rgb(216, 216, 216);" transform="matrix(0.12661914119014034, 0, 0, 0.12661914119014034, 103.88193427191841, 192.8663024902344)"/>
  <rect style="fill: rgb(216, 216, 216);" transform="matrix(0.12661914119014034, 0, 0, 0.12661914119014034, 103.88193427191841, 192.8663024902344)"/>
  <rect transform="matrix(0.12661914119014034, 0, 0, 0.12661914119014034, 103.75531684027779, 192.99293518066406)" style="fill: rgb(216, 216, 216);"/>
  <rect transform="matrix(0.12661914119014034, 0, 0, 0.12661914119014034, 103.75531684027779, 192.99293518066406)" style="fill: rgb(216, 216, 216);"/>
  <rect transform="matrix(0.12661914119014034, 0, 0, 0.12661914119014034, 103.75531684027779, 192.99293518066406)" style="fill: rgb(216, 216, 216);"/>
  <rect transform="matrix(0.12661914119014034, 0, 0, 0.12661914119014034, 103.75531684027779, 192.99293518066406)" style="fill: rgb(216, 216, 216);"/>
  <rect transform="matrix(0.12661914119014034, 0, 0, 0.12661914119014034, 103.75531684027779, 192.99293518066406)" style="fill: rgb(216, 216, 216);"/>
  <rect transform="matrix(0.12661914119014034, 0, 0, 0.12661914119014034, 103.75531684027779, 192.99293518066406)" style="fill: rgb(216, 216, 216);"/>
  <rect transform="matrix(0.12661914119014034, 0, 0, 0.12661914119014034, 103.75531684027779, 192.99293518066406)" style="fill: rgb(216, 216, 216);"/>
</svg>

